<?xml version="1.0" encoding="UTF-8"?>
<svg id="svg24" width="276.07" height="33.199" version="1.1" viewBox="0 0 274.23 33.199" xmlns="http://www.w3.org/2000/svg">
 <defs id="defs7">
  <linearGradient id="linear0" x1="197.13" x2="-5.0752e-6" y1="132.36" y2="132.36" gradientTransform="matrix(.15553 0 0 .15584 -1 -2.707)" gradientUnits="userSpaceOnUse">
   <stop id="stop1" stop-color="#9f33ff" offset=".12998"/>
   <stop id="stop2" stop-color="#0094ff" offset=".61038"/>
   <stop id="stop3" stop-color="#4eb400" offset="1"/>
  </linearGradient>
  <linearGradient id="linear1" x1="90.352" x2="28.748" y1="78.966" y2="202.17" gradientTransform="matrix(.15553 0 0 .15584 -1 -2.707)" gradientUnits="userSpaceOnUse">
   <stop id="stop4" stop-color="#ffd600" stop-opacity="0" offset="0"/>
   <stop id="stop5" stop-color="#ffc700" offset=".56335"/>
  </linearGradient>
  <linearGradient id="linear2" x1="106.78" x2="176.6" y1="132.36" y2="206.28" gradientTransform="matrix(.15553 0 0 .15584 -1 -2.707)" gradientUnits="userSpaceOnUse">
   <stop id="stop6" stop-color="#ff3b2f" stop-opacity="0" offset=".029733"/>
   <stop id="stop7" stop-color="#e63b2d" offset=".84282"/>
  </linearGradient>
 </defs>
 <g>
  <path id="path8" d="m8.3555 0h11.949c5.168 0 9.3555 4.1953 9.3555 9.3711v11.977c0 5.1758-4.1875 9.3711-9.3555 9.3711h-11.949c-5.168 0-9.3555-4.1953-9.3555-9.3711v-11.977c0-5.1758 4.1875-9.3711 9.3555-9.3711z" fill="#fff"/>
  <path id="path9" d="m8.3555 0h11.949c5.168 0 9.3555 4.1953 9.3555 9.3711v11.977c0 5.1758-4.1875 9.3711-9.3555 9.3711h-11.949c-5.168 0-9.3555-4.1953-9.3555-9.3711v-11.977c0-5.1758 4.1875-9.3711 9.3555-9.3711z" fill="url(#linear0)"/>
  <path id="path10" d="m8.3555 0h11.949c5.168 0 9.3555 4.1953 9.3555 9.3711v11.977c0 5.1758-4.1875 9.3711-9.3555 9.3711h-11.949c-5.168 0-9.3555-4.1953-9.3555-9.3711v-11.977c0-5.1758 4.1875-9.3711 9.3555-9.3711z" fill="url(#linear1)"/>
  <path id="path11" d="m8.3555 0h11.949c5.168 0 9.3555 4.1953 9.3555 9.3711v11.977c0 5.1758-4.1875 9.3711-9.3555 9.3711h-11.949c-5.168 0-9.3555-4.1953-9.3555-9.3711v-11.977c0-5.1758 4.1875-9.3711 9.3555-9.3711z" fill="url(#linear2)"/>
 </g>
 <g fill="#fff">
  <path id="path12" d="m14.371 4.5781c0.01172 0.00781 0.02344 0.011719 0.03906 0.015625 0.0039 0 0.01172 0.00391 0.01953 0.00391 0.07812 0.00781 0.15234 0.03125 0.22266 0.070312 0.01953 0.011719 0.04297 0.023438 0.0625 0.035156l1.5234 0.86328 1.7812 1.0078c0.42969 0.24609 0.85938 0.48828 1.2891 0.73438 0.02734 0.01563 0.05469 0.02734 0.08203 0.04687 0.16406 0.09766 0.28125 0.26562 0.31641 0.45703 0.0078 0.01953 0.0078 0.03906 0.0078 0.05859 0 0.04687 0.0039 0.09766 0.0039 0.14453v2.0625 2.3047 0.125c-0.0039 0.10938-0.03516 0.21484-0.09375 0.30859-0.08594 0.14453-0.22266 0.25391-0.38281 0.30859-0.06641 0.01953-0.13672 0.03125-0.21094 0.03516-0.03125 0-0.0625-0.0039-0.08984-0.0078-0.08203-0.0078-0.16016-0.03516-0.23438-0.07422-0.02344-0.01172-0.04687-0.02344-0.07031-0.03906l-2.2891-1.2969-1.625-0.91797-0.07813-0.04297c-0.0625-0.03516-0.13281-0.05469-0.20312-0.07031-0.01563-0.0039-0.03516-0.0039-0.05078-0.0039h-0.08203c-0.10547 0-0.21094 0.02734-0.30469 0.07422-0.02734 0.01563-0.05469 0.03125-0.07813 0.04687-0.57812 0.33203-1.1562 0.66406-1.7344 0.99219l-2.0781 1.1953c-0.02734 0.01563-0.05859 0.03516-0.08594 0.05078-0.06641 0.03516-0.13672 0.0625-0.21094 0.07812-0.01563 0-0.02734 0.0039-0.04297 0.0039l-0.10156 0.0039c-0.09375 0-0.1875-0.02344-0.27344-0.06641-0.1875-0.08594-0.32813-0.25-0.37891-0.44531-0.01563-0.05859-0.027343-0.11328-0.027343-0.17188v-4.4531-0.08203c0.00391-0.08594 0.019531-0.16797 0.050781-0.25 0.05469-0.13281 0.14844-0.24609 0.26953-0.32422 0.02344-0.01563 0.04687-0.03125 0.07031-0.04297l1.2266-0.70313 1.457-0.83594 1.4727-0.84375 0.36328-0.21094 0.07813-0.042969c0.05078-0.027344 0.10156-0.050781 0.15234-0.066407 0.03516-0.00781 0.07031-0.011718 0.10156-0.015624 0.01563-0.00391 0.02734-0.00781 0.03906-0.019532z"/>
  <path id="path13" d="m3.6602 17.109c0.019532-0.0078 0.035156-0.02344 0.035156-0.04687 0.00781-0.03906 0.015626-0.08203 0.023438-0.12109 0.046875-0.15625 0.14062-0.28906 0.27734-0.38281 0.027344-0.01953 0.054687-0.03516 0.085937-0.05078l0.92969-0.53906 2.0742-1.1992 0.80469-0.46484c0.03125-0.01563 0.0625-0.03516 0.089844-0.05078 0.09375-0.04688 0.19531-0.07422 0.29688-0.07422 0.18359 0 0.35938 0.07031 0.49219 0.19531 0.082031 0.07813 0.14453 0.17578 0.17969 0.28516 0.019531 0.05859 0.03125 0.125 0.035156 0.19141v0.11328 4.3359 0.13281c0.00391 0.22656 0.11719 0.4375 0.30078 0.5625 0.03125 0.02344 0.06641 0.03906 0.09766 0.05859l0.88281 0.49609 1.8242 1.0195 1.1289 0.62891c0.02734 0.01953 0.05859 0.03516 0.08594 0.05078 0.15625 0.09375 0.26953 0.24219 0.31641 0.41406 0.02344 0.08984 0.03125 0.18359 0.01563 0.27734-0.0078 0.07812-0.03516 0.16016-0.07031 0.23047-0.05469 0.11328-0.14062 0.20312-0.24609 0.26953-0.03125 0.01562-0.0625 0.03125-0.08984 0.05078l-2.9492 1.625-1.0039 0.55078c-0.02734 0.01563-0.05078 0.03125-0.08203 0.04297-0.04687 0.02344-0.09375 0.04297-0.14453 0.05859-0.066425 0.01563-0.14064 0.02344-0.21096 0.01953-0.11719-0.003902-0.23047-0.039059-0.32812-0.10156l-0.30859-0.17969-4.1016-2.4141c-0.027343-0.015625-0.050781-0.03125-0.078124-0.050781-0.16016-0.097656-0.27344-0.25391-0.3125-0.4375-0.00781-0.02734-0.011719-0.05859-0.015626-0.08984-0.00391-0.01172-0.011718-0.02344-0.023437-0.02734-0.00391-0.0039-0.00781-0.0039-0.011719-0.0039z"/>
  <path id="path14" d="m19.637 25.824c-0.0078-0.0039-0.01953-0.01172-0.02734-0.01563-0.02344-0.0078-0.05078-0.01563-0.07813-0.02344-0.0625-0.01563-0.125-0.03906-0.17969-0.07031-0.03516-0.01563-0.06641-0.03516-0.09766-0.05469l-1.5156-0.875-2.2422-1.2969c-0.02344-0.01562-0.04687-0.02734-0.07031-0.04297-0.15625-0.09766-0.26562-0.25-0.30469-0.42969-0.01172-0.04687-0.01563-0.09375-0.01563-0.14453-0.0078-0.23438 0.10156-0.45312 0.29688-0.58594 0.02734-0.01953 0.05469-0.03516 0.08594-0.05078l1.2773-0.73438 1.7227-0.98828 0.80859-0.46484c0.03516-0.01953 0.07422-0.03906 0.10547-0.0625 0.13281-0.08203 0.23438-0.20312 0.28906-0.35156 0.01563-0.04687 0.03125-0.09766 0.03516-0.14844 0.0078-0.05469 0.0078-0.10938 0.0078-0.16406v-0.58203-3.7344-0.10156c0-0.03125 0-0.05469 0.0039-0.08203 0.0078-0.16016 0.07813-0.31641 0.19141-0.42969 0.08984-0.08984 0.19531-0.15234 0.31641-0.18359 0.05078-0.01562 0.10547-0.02344 0.16016-0.02734 0.11328 0 0.22656 0.02344 0.32812 0.07813 0.02734 0.01172 0.05469 0.02734 0.07813 0.04297l1.0273 0.59375 1.8086 1.0469 0.94922 0.54687c0.03125 0.01563 0.05859 0.03516 0.08984 0.05078 0.12109 0.07422 0.21484 0.18359 0.26953 0.3125 0.01172 0.01953 0.01953 0.04297 0.02344 0.06641 0.0039 0.01563 0.01172 0.03125 0.01953 0.04687v5.6602c-0.01172 0.0078-0.01953 0.01953-0.01953 0.03516-0.0039 0.02734-0.01172 0.05078-0.02344 0.07812-0.05469 0.12109-0.14453 0.22656-0.25781 0.29688-0.03125 0.01953-0.05859 0.03516-0.08984 0.05078l-1.3945 0.80078-3.1055 1.7852c-0.02734 0.01563-0.05078 0.03125-0.07813 0.04297-0.05859 0.03516-0.11719 0.05859-0.18359 0.07031-0.01953 0.0078-0.04297 0.01172-0.06641 0.01953-0.01172 0.0039-0.01953 0.01172-0.02344 0.01953z"/>
 </g>
 <path id="path15" d="m40.336 26.59v-16.793h-5.8398v-3.6875h15.77v3.6875h-5.8438v16.793zm11.816 0-4.7305-15.215h4.6133l1.957 8.6328c0.17578 0.73047 0.35156 1.5508 0.46875 2.3125 0.11719-0.76172 0.29297-1.6094 0.49609-2.3398l2.2188-8.6055h4.5273l2.3633 8.6055c0.20703 0.73047 0.37891 1.5781 0.49609 2.3398 0.11719-0.76172 0.29297-1.582 0.46875-2.3125l2.1016-8.6328h4.293l-4.7305 15.215h-4.2617l-2.4844-8.6602c-0.23438-0.73047-0.41016-1.5195-0.52344-2.2812-0.11719 0.76172-0.26562 1.5508-0.46875 2.2812l-2.2773 8.6602zm26.324 0.38281c-4.1758 0-7.5039-3.543-7.5039-7.9297 0-4.3906 3.3281-7.9883 7.5039-7.9883 2.6289 0 4 1.082 4.8164 2.7227v-2.4023h3.9141v15.215h-3.8242v-2.4844c-0.82031 1.7266-2.1914 2.8672-4.9062 2.8672zm-3.5625-7.9609c0 2.3125 1.6914 4.3906 4.2031 4.3906 2.6016 0 4.2656-1.9883 4.2656-4.3594s-1.6641-4.418-4.2656-4.418c-2.5117 0-4.2031 2.0195-4.2031 4.3867zm24.68 7.5781-6.1016-7.2266v7.2266h-3.9414v-21.359h3.9414v12.289l5.6914-6.1445h5.6094l-7.1563 7.082 7.1836 8.1328zm11.598 0.38281c-4.6992 0-7.8555-3.5703-7.8555-7.9609 0-4.3867 3.3008-8.0156 7.8555-8.0156 4.5547 0 7.7109 3.6289 7.7109 8.0156 0 0.44141-0.0312 0.91016-0.11718 1.4062h-11.359c0.4375 1.7852 1.7812 3.043 3.7656 3.043 1.6953 0 3.0078-0.87891 3.7109-2.0469l3.0664 2.3086c-1.2266 1.9023-3.7695 3.25-6.7773 3.25zm-3.7656-9.5117h7.5039c-0.4375-1.6953-1.8672-3.0703-3.7969-3.0703-1.8672 0-3.2695 1.2578-3.707 3.0703z"/>
 <g fill="#97a1b5">
  <path id="path16" d="m250.75 27.141c-2.2891 0-4.1914-0.76172-5.7109-2.2812-1.5-1.5234-2.25-3.4023-2.25-5.6328 0-2.2344 0.75-4.1094 2.25-5.6328 1.5195-1.5234 3.4219-2.2852 5.7109-2.2852 1.5391 0 2.918 0.36719 4.1328 1.0977 1.2344 0.73047 2.1992 1.7266 2.8867 2.9844l-2.2812 1.2773c-0.44141-0.89453-1.082-1.6016-1.9102-2.1289-0.8125-0.53125-1.7539-0.79297-2.8281-0.79297-1.5586 0-2.8359 0.52734-3.8281 1.582-0.99218 1.0547-1.4883 2.3555-1.4883 3.8984 0 1.543 0.4961 2.8398 1.4883 3.8945 0.99219 1.0547 2.2695 1.5859 3.8281 1.5859 1.0742 0 2.0156-0.26562 2.8281-0.79297 0.82813-0.52734 1.4688-1.2383 1.9102-2.1328l2.2812 1.2812c-0.6875 1.2578-1.6523 2.25-2.8867 2.9805-1.2148 0.73438-2.5938 1.0977-4.1328 1.0977z"/>
  <path id="path17" d="m231.38 27.141c-1.1719 0-2.1758-0.21094-3.0078-0.64062-0.80859-0.44531-1.4258-1.043-1.8516-1.793-0.42578-0.77344-0.63672-1.6367-0.63672-2.5898 0-1.6016 0.46484-2.7617 1.3945-3.4688 0.95312-0.71094 2.3125-1.0664 4.0742-1.0664h5.2266v-1.0977c0-1.3789-0.31641-2.332-0.94531-2.8594-0.60547-0.52734-1.5274-0.79297-2.7617-0.79297-1.1562 0-1.9961 0.22266-2.5234 0.67188-0.52734 0.42578-0.82031 0.91016-0.8789 1.4609h-2.6758c0.0625-0.875 0.35547-1.6445 0.87891-2.3164 0.52734-0.6875 1.2461-1.2383 2.1602-1.6445 0.91015-0.40234 1.9726-0.60547 3.1875-0.60547 1.2773 0 2.3828 0.20312 3.3125 0.60547 0.93359 0.38672 1.6523 1.0078 2.1602 1.8594 0.50391 0.83203 0.75782 1.9375 0.75782 3.3164v6.5469 2.2539c0.0195 0.62891 0.0703 1.2461 0.15234 1.8555h-2.3398c-0.0625-0.46484-0.10157-0.90234-0.1211-1.3086-0.0195-0.42578-0.0312-0.90234-0.0312-1.4297-0.42578 0.85156-1.1133 1.5703-2.0664 2.1602-0.95313 0.58984-2.1055 0.88281-3.4648 0.88281zm0.57813-2.4336c0.85156 0 1.6211-0.15234 2.3086-0.45703 0.71094-0.30469 1.2656-0.75391 1.6719-1.3398 0.42578-0.58984 0.64062-1.3086 0.64062-2.1641v-1.0938h-4.7734c-0.99218 0-1.7734 0.20312-2.3359 0.60938-0.57032 0.38281-0.85157 1.0039-0.85157 1.8555 0 0.75 0.26172 1.3711 0.78907 1.8594 0.54687 0.48438 1.3984 0.73047 2.5508 0.73047z"/>
  <path id="path18" d="m219.48 26.836v-22.832h2.6133v22.832z"/>
  <path id="path19" d="m202.9 33.199h-2.6133v-21.586h2.6133v2.3438c0.52344-0.76953 1.2656-1.3984 2.2188-1.8867 0.96875-0.50781 2.0156-0.76172 3.1289-0.76172 2.1055 0 3.8672 0.77344 5.2852 2.3164 1.4375 1.543 2.1562 3.4102 2.1562 5.6016s-0.71875 4.0586-2.1562 5.6016c-1.418 1.543-3.1797 2.3125-5.2852 2.3125-1.1133 0-2.1602-0.24219-3.1289-0.73047-0.95312-0.50781-1.6953-1.1484-2.2188-1.918zm1.2461-10.047c0.97265 1.0547 2.207 1.582 3.707 1.582 1.4961 0 2.7305-0.52734 3.7031-1.582 0.97266-1.0547 1.4609-2.3633 1.4609-3.9258s-0.48828-2.8711-1.4609-3.9297c-0.97265-1.0547-2.207-1.582-3.7031-1.582-1.5 0-2.7344 0.52734-3.707 1.582-0.97266 1.0586-1.4609 2.3672-1.4609 3.9297s0.48828 2.8711 1.4609 3.9258z"/>
  <path id="path20" d="m194.8 26.836-8.2344-7.6094v7.6094h-2.6133v-22.832h2.6133v13.547l6.6211-5.9375h3.4648l-7.4727 6.7305 9.1445 8.4922z"/>
  <path id="path21" d="m172.52 26.836v-15.223h2.6133v2.9531c0.28515-0.93359 0.83203-1.6836 1.6406-2.25 0.82813-0.57031 1.6992-0.85547 2.6133-0.85547 0.44532 0 0.83985 0.04297 1.1836 0.125v2.707c-0.36328-0.16016-0.83985-0.24219-1.4258-0.24219-1.0547 0-1.9844 0.45703-2.7969 1.3711-0.80859 0.91016-1.2148 2.1992-1.2148 3.8633v7.5508z"/>
  <path id="path22" d="m160.9 27.141c-2.293 0-4.1953-0.76172-5.7148-2.2812-1.5-1.543-2.2461-3.4219-2.2461-5.6328 0-2.2148 0.74609-4.082 2.2461-5.6016 1.5195-1.543 3.4219-2.3164 5.7148-2.3164 2.2656 0 4.1484 0.77344 5.6484 2.3164 1.5195 1.5195 2.2774 3.3867 2.2774 5.6016 0 2.2109-0.75781 4.0898-2.2774 5.6328-1.5 1.5195-3.3828 2.2812-5.6484 2.2812zm-3.832-4.0195c0.99218 1.0547 2.2695 1.5859 3.832 1.5859 1.5586 0 2.8242-0.53125 3.793-1.5859 0.97656-1.0547 1.4609-2.3516 1.4609-3.8945 0-1.543-0.48437-2.8438-1.4609-3.8984-0.96875-1.0547-2.2344-1.582-3.793-1.582-1.5625 0-2.8398 0.52734-3.832 1.582-0.97266 1.0547-1.457 2.3555-1.457 3.8984 0 1.543 0.48438 2.8398 1.457 3.8945z"/>
  <path id="path23" d="m143.58 26.836-5.2852-14.672-5.2578 14.672h-2.5195l-5.8945-21.613h2.9453l4.4961 16.863 6.2305-17.23 6.2266 17.23 4.5273-16.863h2.9492l-5.8945 21.613z"/>
  <path id="path24" d="m267.81 27.141c-2.332 0-4.2226-0.75-5.6836-2.2539-1.457-1.5-2.1875-3.3867-2.1875-5.6602 0-2.2539 0.74219-4.1328 2.2188-5.6328 1.4805-1.5234 3.375-2.2852 5.6836-2.2852 2.043 0 3.7539 0.69141 5.1328 2.0703 1.3984 1.3594 2.0976 3.2188 2.0976 5.5742 0 0.30469-0.0117 0.56641-0.0312 0.78906h-12.457c0.0391 1.4219 0.54688 2.6094 1.5195 3.5625 0.99219 0.95312 2.2383 1.4297 3.7383 1.4297 2.125 0 3.707-0.88281 4.7383-2.6484l2.0664 1.4336c-1.4766 2.4141-3.7578 3.6211-6.8359 3.6211zm-5.043-9.5273h9.6289c-0.19922-1.2188-0.73828-2.1836-1.6094-2.8945-0.85157-0.73047-1.8633-1.0938-3.0391-1.0938-1.1914 0-2.2695 0.36328-3.2188 1.0938-0.93359 0.71094-1.5195 1.6758-1.7617 2.8945z"/>
 </g>
</svg>
